<?xml version="1.0" encoding="utf-8"?>
<!-- Generator: Adobe Illustrator 16.0.0, SVG Export Plug-In . SVG Version: 6.00 Build 0)  -->
<!DOCTYPE svg PUBLIC "-//W3C//DTD SVG 1.1//EN" "http://www.w3.org/Graphics/SVG/1.1/DTD/svg11.dtd">
<svg version="1.1" id="Layer_1" xmlns="http://www.w3.org/2000/svg" xmlns:xlink="http://www.w3.org/1999/xlink" x="0px" y="0px"
	 width="50px" height="50px" viewBox="0 0 50 50" enable-background="new 0 0 50 50" xml:space="preserve">
<g>
	<g>
		<path fill="#010101" d="M47.851,26.422c-1.371-1.447-3.221-2.321-5.213-2.461l-0.479-0.047c-0.023-0.002-0.048-0.003-0.071-0.003
			c-0.743,0-1.492,0.118-2.277,0.36l-0.567-0.568c0.413-1.031,0.189-2.235-0.622-3.046l-0.096-0.097
			c-0.583-0.583-1.365-0.863-2.14-0.827c0.037-0.774-0.244-1.556-0.825-2.138L35.465,17.5c-0.583-0.582-1.365-0.863-2.139-0.826
			c0.037-0.775-0.244-1.557-0.825-2.139l-0.095-0.094c-0.582-0.582-1.364-0.862-2.139-0.825c0.038-0.776-0.245-1.558-0.828-2.142
			l-0.092-0.091c-0.815-0.816-2.022-1.04-3.052-0.625l-0.566-0.566c0.242-0.779,0.359-1.528,0.359-2.278
			c0-0.022,0-0.044-0.003-0.067l-0.044-0.482c-0.079-1.126-0.389-2.201-0.919-3.194c-0.19-0.357-0.634-0.491-0.991-0.301
			c-0.356,0.191-0.491,0.635-0.301,0.991c0.435,0.812,0.687,1.691,0.75,2.613c0,0.005,0.001,0.011,0.001,0.016l0.042,0.456
			c-0.004,0.707-0.142,1.424-0.422,2.191c-0.098,0.268-0.031,0.568,0.17,0.769l0.726,0.725l-3.19,3.19l-0.725-0.725
			c-0.202-0.202-0.504-0.268-0.772-0.168c-0.751,0.278-1.47,0.416-2.196,0.42l-0.442-0.044c-0.007-0.001-0.015-0.001-0.022-0.002
			c-3.368-0.231-6.006-3.038-6.006-6.389c0-0.598,0.086-1.191,0.257-1.771l3.972,3.963c0.289,0.301,0.654,0.534,1.11,0.708
			c0.357,0.141,0.727,0.212,1.096,0.212c0.835,0,1.62-0.324,2.204-0.908c0.857-0.838,1.143-2.131,0.728-3.293
			c-0.005-0.014-0.01-0.028-0.016-0.041c-0.126-0.295-0.336-0.727-0.711-1.087l-3.967-3.969c0.578-0.174,1.167-0.262,1.763-0.262
			c1.466,0,2.846,0.483,3.988,1.396c0.316,0.252,0.777,0.201,1.03-0.115c0.252-0.316,0.201-0.777-0.115-1.029
			C21.676,0.594,19.98,0,18.178,0c-1.164,0-2.304,0.269-3.39,0.798c-0.213,0.104-0.362,0.304-0.401,0.537s0.037,0.471,0.204,0.639
			l4.761,4.764c0.004,0.004,0.008,0.008,0.013,0.012c0.138,0.132,0.253,0.314,0.373,0.588c0.213,0.62,0.066,1.297-0.385,1.738
			c-0.313,0.313-0.729,0.485-1.174,0.485c-0.186,0-0.374-0.037-0.567-0.113c-0.258-0.099-0.449-0.216-0.585-0.359
			c-0.004-0.004-0.009-0.009-0.013-0.014l-4.773-4.764c-0.168-0.168-0.408-0.244-0.642-0.203c-0.234,0.041-0.435,0.192-0.537,0.407
			c-0.519,1.09-0.782,2.234-0.782,3.399c0,2.014,0.761,3.928,2.144,5.389c1.116,1.179,2.553,1.977,4.126,2.308
			c-0.556,1.292-0.34,2.847,0.638,3.933l-1.7,1.701C14.85,21.879,14.5,22.723,14.5,23.62c0,0.831,0.3,1.615,0.847,2.23l-2.638,2.639
			l-1.577-1.578c-0.286-0.285-0.75-0.285-1.036,0l-3.937,3.936c-0.002,0.002-0.003,0.004-0.005,0.006l-5.941,5.941
			c-0.286,0.287-0.286,0.75,0,1.036l4.567,4.567c0.286,0.285,0.75,0.285,1.036,0c0.286-0.286,0.286-0.75,0-1.036l-4.049-4.049
			l5.485-5.485l10.92,10.92l-5.485,5.486L7.857,43.4c-0.286-0.285-0.75-0.285-1.036,0c-0.286,0.287-0.286,0.75,0,1.036l5.349,5.349
			C12.308,49.923,12.494,50,12.688,50s0.381-0.077,0.518-0.215l5.938-5.938c0.003-0.003,0.007-0.006,0.01-0.009l3.935-3.937
			c0.137-0.137,0.214-0.323,0.214-0.518s-0.077-0.381-0.214-0.518l-1.2-1.2l2.689-2.69c1.145,0.734,2.637,0.712,3.78-0.121
			c0.326-0.238,0.397-0.697,0.159-1.023c-0.239-0.326-0.696-0.398-1.023-0.16c-0.757,0.553-1.789,0.472-2.454-0.193
			c-0.137-0.137-0.324-0.214-0.518-0.214s-0.38,0.077-0.518,0.214l-3.151,3.152l-7.107-7.107l3.151-3.151
			c0.286-0.286,0.286-0.749,0-1.035l-0.376-0.377c-0.358-0.358-0.555-0.834-0.555-1.34s0.197-0.981,0.555-1.339l2.212-2.212
			c0.001,0,0.002-0.001,0.003-0.002s0.001-0.002,0.002-0.002l3.682-3.683c0.001-0.001,0.003-0.003,0.005-0.004
			c0.001-0.001,0.003-0.003,0.004-0.005l3.952-3.953c0.061-0.06,0.123-0.112,0.193-0.16c0.541-0.374,1.271-0.307,1.738,0.162
			l0.093,0.091c0.466,0.466,0.532,1.197,0.159,1.739c-0.047,0.066-0.1,0.129-0.156,0.188c-0.002,0.001-0.002,0.001-0.004,0.002
			l-4.36,4.361c-0.286,0.286-0.286,0.75,0,1.036c0.143,0.143,0.331,0.214,0.518,0.214s0.375-0.071,0.518-0.214l4.358-4.357
			c0-0.001,0.002-0.002,0.004-0.004c0.059-0.059,0.123-0.112,0.19-0.159c0.541-0.373,1.272-0.306,1.737,0.159l0.094,0.094
			c0.466,0.466,0.533,1.197,0.156,1.742c-0.043,0.065-0.096,0.128-0.155,0.187c-0.001,0-0.001,0-0.001,0l-4.359,4.361
			c-0.287,0.286-0.287,0.75,0,1.036c0.143,0.143,0.33,0.214,0.518,0.214s0.375-0.071,0.518-0.214l4.36-4.36c0,0,0,0,0.001,0
			c0.059-0.06,0.122-0.112,0.191-0.159c0.541-0.373,1.271-0.306,1.737,0.159l0.093,0.093c0.466,0.466,0.533,1.197,0.156,1.742
			c-0.043,0.065-0.096,0.128-0.156,0.188c0,0.001-0.001,0.002-0.002,0.003l-4.357,4.358c-0.287,0.286-0.287,0.749,0,1.036
			c0.143,0.143,0.33,0.214,0.518,0.214s0.375-0.071,0.518-0.214l4.361-4.361c0-0.001,0.001-0.001,0.002-0.002
			c0.059-0.059,0.121-0.11,0.189-0.157c0.541-0.374,1.271-0.307,1.734,0.156l0.097,0.098c0.465,0.465,0.532,1.195,0.159,1.737
			c-0.049,0.07-0.101,0.133-0.159,0.192l-8.11,8.111c-0.286,0.285-0.286,0.749,0,1.035c0.143,0.143,0.33,0.215,0.518,0.215
			s0.375-0.072,0.518-0.215l3.635-3.635l0.404,0.403c-0.238,0.761-0.358,1.528-0.358,2.292c0,0.022,0.001,0.045,0.003,0.068
			l0.045,0.469c0.139,1.996,1.013,3.849,2.461,5.218c1.461,1.383,3.375,2.144,5.391,2.144c1.159,0,2.302-0.263,3.396-0.782
			c0.215-0.103,0.366-0.302,0.407-0.536s-0.035-0.475-0.203-0.643l-4.764-4.775c-0.003-0.004-0.006-0.006-0.01-0.01
			c-0.193-0.188-0.299-0.41-0.352-0.564c-0.002-0.005-0.004-0.01-0.006-0.015c-0.232-0.628-0.094-1.296,0.365-1.749
			c0.316-0.313,0.73-0.486,1.166-0.486c0.189,0,0.376,0.036,0.553,0.107c0.006,0.003,0.012,0.005,0.018,0.008
			c0.267,0.1,0.454,0.213,0.59,0.357c0.005,0.004,0.01,0.008,0.014,0.013l4.765,4.764c0.167,0.167,0.405,0.244,0.64,0.204
			c0.233-0.039,0.434-0.189,0.537-0.402c0.528-1.088,0.796-2.229,0.796-3.389C49.998,29.805,49.235,27.887,47.851,26.422z
			 M20.335,38.185L20.335,38.185C20.336,38.186,20.336,38.186,20.335,38.185l1.2,1.2l-2.326,2.326L8.289,30.79l2.326-2.325
			l1.576,1.576c0,0,0,0,0,0c0,0.001,0,0.001,0.001,0.001L20.335,38.185z M18.225,18.505c-0.643-0.767-0.684-1.883-0.118-2.695
			c0.024,0.002,0.047,0.003,0.071,0.003c0.754,0,1.523-0.12,2.291-0.358l0.403,0.403L18.225,18.505z M48.271,33.586l-3.97-3.968
			c-0.287-0.3-0.653-0.532-1.119-0.708c-0.351-0.142-0.719-0.213-1.096-0.213c-0.825,0-1.606,0.324-2.197,0.911
			c-0.857,0.845-1.135,2.136-0.71,3.292c0.151,0.432,0.396,0.82,0.711,1.125l3.965,3.976c-0.581,0.171-1.173,0.258-1.769,0.258
			c-3.352,0-6.16-2.639-6.391-6.007c-0.001-0.007-0.002-0.013-0.002-0.02l-0.042-0.441c0.005-0.727,0.146-1.465,0.42-2.195
			c0.102-0.27,0.036-0.572-0.167-0.775l-0.727-0.727l3.191-3.192l0.725,0.726c0.201,0.2,0.5,0.268,0.767,0.17
			c0.774-0.279,1.492-0.417,2.191-0.422l0.454,0.044c0.006,0.001,0.014,0.001,0.02,0.002c3.369,0.233,6.007,3.045,6.007,6.403
			C48.533,32.418,48.445,33.008,48.271,33.586z"/>
	</g>
</g>
</svg>
