<?xml version="1.0" encoding="utf-8"?>
<!-- Generator: Adobe Illustrator 16.0.0, SVG Export Plug-In . SVG Version: 6.00 Build 0)  -->
<!DOCTYPE svg PUBLIC "-//W3C//DTD SVG 1.1//EN" "http://www.w3.org/Graphics/SVG/1.1/DTD/svg11.dtd">
<svg version="1.1" id="Layer_1" xmlns="http://www.w3.org/2000/svg" xmlns:xlink="http://www.w3.org/1999/xlink" x="0px" y="0px"
	 width="50px" height="50px" viewBox="0 0 50 50" enable-background="new 0 0 50 50" xml:space="preserve">
<g>
	<path fill="#010101" d="M0.788,14.126h6.755c0.121,0,0.219,0.099,0.219,0.22v10.808c0,0.403,0.327,0.731,0.731,0.731
		c0.404,0,0.731-0.328,0.731-0.731v-9.61h1.116c0.198,0,0.388-0.08,0.525-0.222l0.754-0.778c0.877-0.906,2.105-1.426,3.367-1.426
		h6.418l-4.883,5.709c-0.992,1.159-0.923,2.911,0.155,3.989c0.572,0.571,1.323,0.861,2.079,0.861c0.648,0,1.299-0.214,1.84-0.647
		l4.257-3.42h3.821l3.896,5.516c0.143,0.201,0.369,0.309,0.598,0.309c0.146,0,0.293-0.042,0.42-0.133
		c0.332-0.234,0.41-0.689,0.176-1.02l-3.385-4.793c0.199-0.131,0.33-0.355,0.33-0.61c0-0.403-0.328-0.731-0.732-0.731h-5.38
		c-0.167,0-0.328,0.056-0.458,0.161l-4.459,3.581c-0.588,0.472-1.435,0.426-1.968-0.108c-0.542-0.541-0.576-1.422-0.078-2.003
		l5.916-6.916c0.326-0.383,0.802-0.602,1.305-0.602h6.345c0.404,0,0.73-0.327,0.73-0.731s-0.326-0.731-0.73-0.731h-6.345
		c-0.812,0-1.585,0.309-2.171,0.856h-7.696c-1.655,0-3.266,0.682-4.417,1.871l-0.539,0.556H9.202
		c-0.128-0.802-0.822-1.417-1.659-1.417H0.788c-0.404,0-0.731,0.327-0.731,0.731C0.057,13.799,0.384,14.126,0.788,14.126
		L0.788,14.126z"/>
	<path fill="#010101" d="M49.27,31.424h-6.658c-0.121,0-0.219-0.099-0.219-0.22V14.346c0-0.121,0.098-0.22,0.219-0.22h6.658
		c0.402,0,0.73-0.327,0.73-0.731c0-0.404-0.328-0.731-0.73-0.731h-6.658c-0.902,0-1.641,0.717-1.678,1.611h-0.537l-2.168-1.938
		c-1.072-0.958-2.457-1.504-3.896-1.536c-0.408-0.009-0.738,0.311-0.748,0.714c-0.008,0.404,0.311,0.739,0.715,0.749
		c1.094,0.024,2.143,0.438,2.955,1.165l2.377,2.124c0.133,0.12,0.307,0.186,0.486,0.186h0.813v14.085h-3.754
		c-0.055-0.55-0.254-1.079-0.584-1.539l-1.029-1.456c-0.232-0.331-0.689-0.409-1.02-0.177s-0.406,0.689-0.174,1.02l1.031,1.462
		c0.275,0.384,0.385,0.853,0.307,1.318c-0.076,0.467-0.332,0.876-0.715,1.15c-0.385,0.275-0.854,0.385-1.32,0.308
		c-0.467-0.078-0.875-0.331-1.15-0.716l-2.016-2.816c-0.234-0.329-0.693-0.404-1.021-0.17c-0.328,0.236-0.404,0.692-0.168,1.021
		l1.383,1.933c0.568,0.793,0.385,1.901-0.408,2.47c-0.383,0.275-0.854,0.384-1.318,0.306c-0.469-0.076-0.875-0.33-1.152-0.715
		l-1.383-1.933c-0.234-0.329-0.692-0.403-1.021-0.169c-0.328,0.235-0.403,0.692-0.168,1.02l1.107,1.547
		c0.568,0.794,0.385,1.902-0.409,2.47c-0.794,0.568-1.902,0.385-2.47-0.409L22.37,34.2c-0.235-0.328-0.692-0.404-1.02-0.169
		c-0.329,0.235-0.404,0.692-0.169,1.021l0.952,1.329c0.275,0.385,0.384,0.854,0.307,1.32c-0.077,0.467-0.332,0.875-0.715,1.15
		c-0.794,0.568-1.902,0.385-2.468-0.405l-5.77-8.161c-0.205-0.289-0.538-0.463-0.893-0.463H9.225v-1.554
		c0-0.404-0.327-0.731-0.731-0.731c-0.404,0-0.73,0.327-0.73,0.731v2.936c0,0.121-0.099,0.22-0.22,0.22H0.788
		c-0.404,0-0.731,0.327-0.731,0.73c0,0.404,0.328,0.731,0.731,0.731h6.755c0.9,0,1.635-0.711,1.678-1.6h3.182l5.662,8.008
		c0.63,0.881,1.625,1.35,2.633,1.35c0.651,0,1.309-0.195,1.877-0.603c0.702-0.504,1.167-1.249,1.308-2.102
		c0.009-0.052,0.016-0.104,0.021-0.155c0.328,0.107,0.671,0.164,1.018,0.164c0.649,0,1.307-0.196,1.875-0.604
		c0.734-0.526,1.182-1.305,1.311-2.134c0.201,0.076,0.408,0.133,0.625,0.169c0.178,0.03,0.357,0.044,0.535,0.044
		c0.668,0,1.32-0.208,1.875-0.605c0.643-0.46,1.066-1.116,1.246-1.83c0.32,0.179,0.672,0.302,1.045,0.362
		c0.178,0.03,0.357,0.045,0.535,0.045c0.668,0,1.318-0.207,1.873-0.604c0.533-0.383,0.93-0.904,1.15-1.505h3.941
		c0.043,0.889,0.779,1.6,1.678,1.6h6.656c0.404,0,0.732-0.327,0.732-0.731C50,31.751,49.672,31.424,49.27,31.424L49.27,31.424z"/>
	<path fill="#010101" d="M25.029,6.967c0.403,0,0.73-0.328,0.73-0.731v-2.54c0-0.404-0.327-0.731-0.73-0.731
		c-0.404,0-0.731,0.328-0.731,0.731v2.54C24.297,6.639,24.625,6.967,25.029,6.967z"/>
	<path fill="#010101" d="M32.305,8.462c0.096,0.042,0.193,0.061,0.291,0.061c0.281,0,0.551-0.164,0.672-0.439l1.014-2.329
		c0.16-0.37-0.008-0.801-0.379-0.962c-0.369-0.161-0.801,0.007-0.961,0.378L31.926,7.5C31.764,7.87,31.934,8.301,32.305,8.462z"/>
	<path fill="#010101" d="M16.791,8.084c0.119,0.275,0.388,0.439,0.67,0.439c0.097,0,0.197-0.019,0.292-0.061
		c0.371-0.161,0.54-0.592,0.379-0.962l-1.014-2.329c-0.162-0.371-0.592-0.54-0.963-0.378c-0.37,0.161-0.54,0.592-0.378,0.962
		L16.791,8.084z"/>
	<path fill="#010101" d="M25.029,44.562c-0.404,0-0.731,0.327-0.731,0.731v2.541c0,0.403,0.327,0.73,0.731,0.73
		c0.403,0,0.73-0.327,0.73-0.73v-2.541C25.759,44.889,25.432,44.562,25.029,44.562z"/>
	<path fill="#010101" d="M33.268,43.444c-0.162-0.369-0.592-0.539-0.963-0.377c-0.371,0.161-0.541,0.592-0.379,0.962l1.016,2.327
		c0.117,0.276,0.387,0.439,0.67,0.439c0.098,0,0.195-0.019,0.291-0.06c0.371-0.162,0.539-0.592,0.379-0.963L33.268,43.444z"/>
	<path fill="#010101" d="M17.752,43.067c-0.37-0.162-0.801,0.008-0.962,0.377l-1.015,2.329c-0.161,0.37,0.009,0.801,0.378,0.963
		c0.095,0.041,0.194,0.06,0.292,0.06c0.282,0,0.55-0.163,0.671-0.439l1.014-2.327C18.292,43.659,18.123,43.229,17.752,43.067
		L17.752,43.067z"/>
</g>
</svg>
