<?xml version="1.0" encoding="utf-8"?>
<!-- Generator: Adobe Illustrator 16.0.0, SVG Export Plug-In . SVG Version: 6.00 Build 0)  -->
<!DOCTYPE svg PUBLIC "-//W3C//DTD SVG 1.1//EN" "http://www.w3.org/Graphics/SVG/1.1/DTD/svg11.dtd">
<svg version="1.1" id="Layer_1" xmlns="http://www.w3.org/2000/svg" xmlns:xlink="http://www.w3.org/1999/xlink" x="0px" y="0px"
	 width="50px" height="50px" viewBox="0 0 50 50" enable-background="new 0 0 50 50" xml:space="preserve">
<g>
	<path fill="#010101" d="M47.126,6.036H3.082C1.375,6.049,0,7.437,0,9.143v28.93c0,1.699,1.382,3.129,3.082,3.129h2.209v1.738
		c0,0.343,0.229,0.646,0.573,0.646h7.457c0.343,0,0.579-0.304,0.579-0.646v-1.738h22.407v1.738c0,0.343,0.236,0.646,0.579,0.646
		h7.457c0.344,0,0.573-0.304,0.573-0.646v-1.738h2.21c1.699,0,3.08-1.43,3.08-3.129V9.143C50.206,7.437,48.831,6.049,47.126,6.036z
		 M12.655,42.342h-6.12v-1.141h6.12V42.342z M43.67,42.342h-6.119v-1.141h6.119V42.342z M48.961,38.014
		c0,1.016-0.823,1.839-1.837,1.839H3.083c-1.015,0-1.838-0.823-1.838-1.839V9.118c0-1.015,0.823-1.837,1.838-1.837h44.041
		c1.014,0,1.837,0.823,1.837,1.837V38.014z"/>
	<path fill="#010101" d="M9.982,12.591l-4.08,4.319c-0.234,0.252-0.219,0.646,0.033,0.879c0.249,0.23,0.636,0.22,0.872-0.024
		l4.079-4.318c0.239-0.249,0.231-0.642-0.016-0.88c-0.249-0.238-0.642-0.23-0.88,0.017C9.988,12.585,9.985,12.588,9.982,12.591
		L9.982,12.591z"/>
	<path fill="#010101" d="M10.243,15.431l-2.062,2.269c-0.232,0.253-0.215,0.647,0.038,0.879c0.253,0.232,0.647,0.216,0.879-0.038
		c0.001-0.001,0.003-0.003,0.004-0.004l2.062-2.269c0.233-0.251,0.219-0.646-0.032-0.88c-0.252-0.234-0.646-0.22-0.88,0.032
		C10.249,15.423,10.246,15.427,10.243,15.431L10.243,15.431z"/>
	<path fill="#010101" d="M43.688,17.885c1.186,0,2.147-0.961,2.147-2.148c0-1.186-0.962-2.147-2.147-2.147
		c-1.187,0-2.146,0.961-2.146,2.147C41.543,16.923,42.505,17.884,43.688,17.885z M43.688,14.835c0.5,0,0.902,0.403,0.902,0.902
		c0,0.498-0.402,0.902-0.902,0.902c-0.498,0-0.903-0.404-0.903-0.903C42.788,15.239,43.19,14.835,43.688,14.835L43.688,14.835z"/>
	<path fill="#010101" d="M43.688,23.065c1.186,0,2.147-0.961,2.147-2.147c0-1.186-0.962-2.148-2.147-2.148
		c-1.187,0-2.146,0.962-2.146,2.148C41.543,22.102,42.505,23.063,43.688,23.065z M43.688,20.014c0.5,0,0.902,0.404,0.902,0.901
		c0,0.5-0.402,0.903-0.902,0.903c-0.498,0-0.903-0.403-0.903-0.903C42.788,20.418,43.19,20.015,43.688,20.014L43.688,20.014z"/>
	<path fill="#010101" d="M43.688,26.548c-2.045,0-3.703,1.659-3.703,3.705s1.658,3.703,3.703,3.703c2.046,0,3.705-1.657,3.705-3.703
		l0,0C47.391,28.207,45.734,26.551,43.688,26.548z M43.688,32.712c-1.357,0-2.459-1.102-2.459-2.459
		c0-1.358,1.102-2.459,2.459-2.459c1.358,0,2.459,1.101,2.459,2.459l0,0C46.146,31.61,45.046,32.711,43.688,32.712z"/>
	<path fill="#010101" d="M35.291,9.666H6.878c-1.679,0-3.041,1.361-3.041,3.041l0,0v21.386c0,1.691,1.371,3.063,3.062,3.063l0,0
		h2.436c0.344,0,0.623-0.278,0.623-0.624c0-0.342-0.279-0.621-0.623-0.621H6.878c-0.992,0-1.795-0.805-1.795-1.796l0,0V12.756
		c0.003-1.018,0.827-1.842,1.846-1.845h28.404c0.996,0,1.803,0.808,1.803,1.802v21.38c0,1.003-0.813,1.817-1.817,1.817l0,0H13.485
		c-0.344,0-0.623,0.279-0.623,0.621c0,0.346,0.279,0.624,0.623,0.624h21.848c1.684,0,3.048-1.365,3.048-3.047V12.756
		C38.375,11.052,36.995,9.671,35.291,9.666z"/>
	<path fill="#010101" d="M7.676,23.67h4.429c0.978,3.046,3.656,6.131,8.518,8.064c0.009,0.005,0.021,0.01,0.032,0.013
		c0.269,0.101,0.566,0.101,0.835,0c0.013-0.004,0.025-0.01,0.037-0.014c3.392-1.377,5.721-3.3,7.15-5.365h2.903
		c0.406,1.014,1.558,1.509,2.572,1.104c1.015-0.405,1.51-1.557,1.105-2.572c-0.405-1.015-1.557-1.51-2.571-1.106
		c-0.581,0.232-1.018,0.724-1.178,1.327h-2.086c0.983-1.923,1.248-3.899,0.912-5.626V19.49c-0.568-2.823-2.614-4.648-5.213-4.648
		c-1.294,0-2.686,0.478-4.044,1.384c-1.377-0.948-2.748-1.427-4.079-1.427c-2.613,0-4.651,1.844-5.191,4.699
		c-0.18,0.966-0.183,1.96-0.011,2.928H7.676c-0.344,0-0.623,0.278-0.623,0.622C7.054,23.392,7.332,23.671,7.676,23.67L7.676,23.67z
		 M33.413,24.9c0.405-0.002,0.734,0.325,0.737,0.729c0.002,0.406-0.324,0.736-0.73,0.737c-0.404,0.002-0.733-0.325-0.736-0.729
		c0-0.002,0-0.003,0-0.005C32.684,25.229,33.01,24.901,33.413,24.9z M21.081,30.572l-0.008,0.001l-0.009-0.003
		c-4.251-1.696-6.67-4.307-7.643-6.9h0.18c0.208,0,0.402-0.155,0.518-0.328l2.347-3.573l3.721,7.675
		c0.095,0.194,0.286,0.327,0.502,0.348c0.02,0.001,0.038,0.001,0.057,0.001c0.195,0.006,0.381-0.083,0.5-0.238l3.916-5.291
		l2.277,3.695C25.896,27.961,23.541,29.568,21.081,30.572L21.081,30.572z M13.03,19.729c0.43-2.273,1.951-3.686,3.968-3.686
		c1.175,0,2.42,0.485,3.701,1.443c0.219,0.163,0.518,0.166,0.739,0.005c1.263-0.918,2.535-1.404,3.685-1.404
		c2.009,0,3.538,1.397,3.991,3.648c0.355,1.838-0.044,3.57-0.932,5.113l-2.448-3.994c-0.108-0.175-0.298-0.335-0.504-0.345
		c-0.207-0.008-0.404,0.087-0.526,0.254l-3.849,5.216l-3.745-7.72c-0.098-0.198-0.296-0.326-0.517-0.336
		c-0.227-0.006-0.439,0.109-0.56,0.301l-2.767,4.201h-0.205C12.877,21.536,12.867,20.622,13.03,19.729L13.03,19.729z"/>
</g>
</svg>
