<?xml version="1.0" encoding="utf-8"?>
<!-- Generator: Adobe Illustrator 16.0.0, SVG Export Plug-In . SVG Version: 6.00 Build 0)  -->
<!DOCTYPE svg PUBLIC "-//W3C//DTD SVG 1.1//EN" "http://www.w3.org/Graphics/SVG/1.1/DTD/svg11.dtd">
<svg version="1.1" id="Layer_1" xmlns="http://www.w3.org/2000/svg" xmlns:xlink="http://www.w3.org/1999/xlink" x="0px" y="0px"
	 width="50px" height="50px" viewBox="0 0 50 50" enable-background="new 0 0 50 50" xml:space="preserve">
<g>
	<path fill="#010101" d="M26.848,15.68c-0.902,0.013-1.838,0.465-2.466,1.087c-1.054,1.047-1.638,2.953-0.458,4.141
		c1.18,1.189,3.089,0.619,4.143-0.427c1.055-1.047,1.639-2.954,0.459-4.141C28.054,15.863,27.458,15.67,26.848,15.68z
		 M27.728,18.216c-0.081,0.472-0.4,0.958-0.682,1.236c-0.467,0.464-1.507,1.028-2.095,0.435c-0.587-0.591-0.014-1.63,0.451-2.092
		c0.47-0.466,1.507-1.029,2.096-0.436C27.731,17.596,27.781,17.903,27.728,18.216z"/>
	<path fill="#010101" d="M21.67,19.208c1.27-1.259,1.476-3.117,0.46-4.141c-1.18-1.189-3.09-0.618-4.145,0.428
		c-1.053,1.046-1.636,2.955-0.459,4.141C18.706,20.824,20.616,20.254,21.67,19.208z M18.325,17.759
		c0.083-0.472,0.4-0.958,0.681-1.236c0.47-0.467,1.506-1.031,2.096-0.437c0.446,0.449,0.239,1.407-0.451,2.093
		c-0.469,0.466-1.507,1.029-2.096,0.435C18.32,18.379,18.271,18.072,18.325,17.759z"/>
	<path fill="#010101" d="M33.354,21.205c-1.179-1.188-3.09-0.618-4.145,0.428c-1.269,1.259-1.476,3.118-0.459,4.141
		c1.181,1.189,3.092,0.619,4.145-0.428C33.95,24.299,34.533,22.393,33.354,21.205z M32.542,23.08
		c-0.063,0.428-0.305,0.879-0.666,1.238c-0.467,0.464-1.508,1.028-2.097,0.435c-0.445-0.448-0.238-1.406,0.451-2.091
		C30.92,21.979,32.774,21.495,32.542,23.08z"/>
	<path fill="#010101" d="M30.261,32.473c1.18,1.188,3.09,0.618,4.144-0.428c1.056-1.046,1.639-2.954,0.46-4.141
		c-1.179-1.188-3.09-0.619-4.145,0.428C29.452,29.591,29.244,31.448,30.261,32.473z M31.739,29.359
		c0.459-0.455,1.504-1.032,2.097-0.435c0.588,0.591,0.015,1.628-0.451,2.091c-0.469,0.467-1.507,1.03-2.097,0.437
		C30.843,31.004,31.05,30.045,31.739,29.359z"/>
	<path fill="#010101" d="M13.221,25.11c-0.709,2.812,1.199,4.07,2.884,5.181c1.477,0.975,2.51,2.016,3.474,3.501
		c1.216,1.874,2.719,3.518,5.159,2.923c1.829-0.446,3.221-1.78,3.725-3.564c0.401-1.422,0.146-2.813-0.667-3.632
		c-0.638-0.642-0.647-1.218-0.661-2.016c-0.019-0.954-0.041-2.144-1.29-3.402c-1.25-1.26-2.439-1.291-3.395-1.316
		c-0.796-0.021-1.372-0.035-2.009-0.678c-0.557-0.561-1.394-0.869-2.358-0.869C16.211,21.238,13.893,22.45,13.221,25.11z
		 M18.082,22.686c0.567,0,1.052,0.161,1.33,0.442c1.046,1.054,2.13,1.082,3,1.105c0.873,0.021,1.563,0.041,2.404,0.887
		c0.84,0.846,0.854,1.537,0.869,2.41c0.016,0.87,0.036,1.954,1.082,3.008c0.432,0.436,0.554,1.327,0.303,2.219
		c-0.361,1.276-1.361,2.23-2.677,2.551c-1.811,0.443-2.726-0.958-3.599-2.303c-1.073-1.654-2.249-2.838-3.892-3.922
		c-1.797-1.186-2.714-1.885-2.277-3.618C15.107,23.556,16.755,22.686,18.082,22.686z"/>
	<path fill="#010101" d="M42.888,32.449c0.305,0.243,0.77,0.194,1.018-0.116c3.889-4.894,5.932-9.982,5.903-14.714
		c-0.023-4.196-1.668-7.92-4.628-10.486c-2.678-2.321-6.142-3.438-9.752-3.146c-3.718,0.3-7.278,2.055-10.34,5.086
		c-2.894-2.863-6.255-4.597-9.762-5.028c-3.411-0.418-6.777,0.438-9.48,2.411C3.048,8.5,1.177,11.584,0.58,15.142
		c-0.662,3.945,0.248,8.317,2.634,12.642c1.679,3.044,4.083,6.069,7.145,8.993c4.058,3.875,8.707,7.1,13.553,9.907
		c0.727,0.423,1.628,0.422,2.356,0c6.517-3.782,11.803-7.855,15.713-12.105c0.271-0.295,0.251-0.753-0.043-1.024
		c-0.295-0.271-0.752-0.252-1.023,0.044c-3.811,4.144-8.983,8.124-15.373,11.832c-0.284,0.165-0.622,0.165-0.904,0.002
		c-0.131-0.077-0.265-0.155-0.399-0.233c4.139-4.008,12.377-12.043,12.662-12.329c2.018-2.001,2.244-5.054,0.506-6.806
		c-0.413-0.417-0.914-0.733-1.47-0.936c0.27-0.36,0.495-0.751,0.674-1.164c0.289-0.673,0.434-1.377,0.431-2.063
		c-0.005-1.097-0.39-2.144-1.167-2.929c-0.947-0.954-2.317-1.353-3.72-1.138c0.068-0.427,0.08-0.864,0.032-1.293
		c-0.238-2.09-1.977-3.6-4.063-3.625c-1.16-0.013-2.306,0.396-3.234,1.082c-1.098-3.09-4.918-3.253-7.226-1.469
		c-0.178,0.137-5.444,5.393-8.213,8.195c-0.282,0.284-0.279,0.743,0.006,1.024c0.284,0.28,0.743,0.278,1.024-0.006
		c2.559-2.585,5.1-5.19,7.694-7.74c1.114-1.095,3.026-1.731,4.427-0.745c0.706,0.497,1.08,1.332,1.087,2.184
		c0.006,0.659,0.856,0.963,1.279,0.458c1.17-1.399,3.587-2.238,5.046-0.773c0.911,0.917,0.913,2.359,0.402,3.476
		c-0.268,0.587,0.363,1.227,0.955,0.962c1.281-0.574,2.644-0.406,3.473,0.428c0.991,1,0.987,2.676,0.092,4.039
		c-0.247,0.376-0.554,0.715-0.903,1.002c-0.508,0.417-0.208,1.272,0.45,1.283c1.197,0.02,2.26,0.776,2.558,1.955
		c0.265,1.043-0.053,2.296-0.906,3.295c-2.392,2.802-5.237,5.162-7.876,7.719c-1.742,1.741-3.538,3.43-5.308,5.144
		c-4.545-2.768-8.443-5.691-11.593-8.699c-2.796-2.671-5.018-5.419-6.61-8.176c0.255-0.26,2.726-2.766,3.697-3.751
		c0.281-0.284,0.278-0.742-0.007-1.024c-0.282-0.277-0.747-0.273-1.024,0.007c-1.148,1.165-3.372,3.42-3.387,3.436
		c-1.886-3.749-2.584-7.479-2.019-10.84C2.542,12.199,4.209,9.445,6.7,7.627c2.405-1.756,5.406-2.517,8.45-2.143
		c3.383,0.414,6.638,2.186,9.412,5.124c0.137,0.145,0.327,0.227,0.526,0.227s0.39-0.082,0.526-0.227
		c2.926-3.097,6.358-4.888,9.93-5.177c3.222-0.261,6.306,0.732,8.688,2.796c5.004,4.338,6.492,13.195-1.461,23.204
		C42.522,31.744,42.573,32.2,42.888,32.449z"/>
</g>
</svg>
