<?xml version="1.0" encoding="utf-8"?>
<!-- Generator: Adobe Illustrator 16.0.0, SVG Export Plug-In . SVG Version: 6.00 Build 0)  -->
<!DOCTYPE svg PUBLIC "-//W3C//DTD SVG 1.1//EN" "http://www.w3.org/Graphics/SVG/1.1/DTD/svg11.dtd">
<svg version="1.1" id="Layer_1" xmlns="http://www.w3.org/2000/svg" xmlns:xlink="http://www.w3.org/1999/xlink" x="0px" y="0px"
	 width="50px" height="50px" viewBox="0 0 50 50" enable-background="new 0 0 50 50" xml:space="preserve">
<g>
	<path fill="#010101" d="M10.347,48.014c1.259,0.64,2.858,0.965,4.754,0.965c0,0,0,0,0,0c2.378,0,4.413-0.512,4.587-0.557
		c1.083-0.262,1.84-0.797,2.249-1.588c0.712-1.38,0.154-3.178-0.412-4.587l-0.566-1.428c-1.074-2.671-2.644-5.735-5.274-5.735
		c-0.252,0-0.509,0.029-0.763,0.09c-0.003,0-0.006,0.002-0.009,0.002l-1.471,0.362c-0.12,0.028-0.243,0.065-0.374,0.104
		c-0.327,0.098-0.698,0.208-1.088,0.208c-1.339,0-2.446-1.523-3.29-4.527c-0.589-2.094-0.603-3.686-0.041-4.604
		c0.509-0.833,1.447-1.022,2.067-1.147c0.097-0.02,0.186-0.038,0.269-0.057l1.479-0.354c0.996-0.237,2.286-1.013,2.782-3.363
		c0.243-1.151,0.285-2.593,0.127-4.405l-0.128-1.54c-0.065-0.709-0.16-1.316-0.289-1.84c2.75-6.37,8.969-10.469,15.927-10.469
		c9.564,0,17.345,7.78,17.345,17.344v20.266c0,0.488,0.396,0.885,0.887,0.885c0.488,0,0.885-0.396,0.885-0.885V20.887
		c0-5.106-1.988-9.907-5.599-13.517S35.99,1.771,30.884,1.771c-3.86,0-7.58,1.146-10.757,3.313
		c-2.601,1.774-4.703,4.132-6.155,6.887c-0.553-0.607-1.286-0.924-2.156-0.924c-0.316,0-0.657,0.043-1.012,0.127
		c-0.353,0.077-5.75,1.298-8.15,4.586c-2.885,3.936-3.42,9.799-1.591,17.423C2.866,40.809,5.99,45.797,10.347,48.014z M4.083,16.806
		c2.029-2.78,7.053-3.892,7.103-3.903c0.006-0.001,0.013-0.002,0.02-0.004c0.224-0.053,0.43-0.08,0.611-0.08
		c0.446,0,1.374,0,1.666,3.188l0.128,1.536c0.312,3.591-0.211,5.575-1.556,5.895L10.58,23.79c-0.062,0.015-0.134,0.029-0.213,0.044
		c-0.751,0.151-2.315,0.467-3.228,1.959c-0.849,1.389-0.899,3.354-0.153,6.007c0.596,2.121,1.333,3.619,2.255,4.58
		c0.789,0.823,1.71,1.24,2.74,1.24c0.649,0,1.195-0.163,1.594-0.281c0.106-0.032,0.207-0.063,0.276-0.078
		c0.003-0.001,0.007-0.002,0.01-0.003l1.471-0.362c0.12-0.027,0.239-0.042,0.353-0.042c1.771,0,3.171,3.481,3.629,4.621l0.566,1.427
		c0.616,1.535,0.773,2.556,0.483,3.119c-0.061,0.117-0.246,0.476-1.098,0.68c-0.006,0.002-0.012,0.004-0.018,0.005
		c-0.019,0.005-1.938,0.501-4.148,0.501c-1.614,0-2.943-0.26-3.951-0.773c-3.871-1.969-6.686-6.563-8.365-13.66
		C1.083,25.675,1.519,20.304,4.083,16.806z"/>
	<path fill="#010101" d="M44.43,25.336c0-0.254-0.109-0.497-0.301-0.665c-0.037-0.032-3.674-3.278-5.125-7.825
		c-0.096-0.301-0.346-0.528-0.654-0.596c-0.309-0.068-0.63,0.035-0.844,0.268c-6.565,7.201-14.801,7.978-18.037,7.978
		c-0.728,0-1.152-0.042-1.155-0.042c-0.249-0.025-0.498,0.056-0.684,0.224s-0.292,0.407-0.292,0.657
		c0,7.467,6.077,13.542,13.545,13.542C38.354,38.879,44.43,32.804,44.43,25.336z M30.883,37.107
		c-6.179,0-11.262-4.783-11.737-10.842c0.101,0.002,0.209,0.003,0.324,0.003c3.31,0,11.493-0.757,18.351-7.52
		c1.492,3.566,3.965,6.136,4.832,6.969C42.451,32.033,37.249,37.107,30.883,37.107z"/>
</g>
</svg>
