<svg height="465pt" viewBox="0 -7 465.998 465" width="465pt" xmlns="http://www.w3.org/2000/svg"><path d="m209.453125 361.734375h47.09375v52.644531h-47.09375zm0 0" fill="#87796f"/><path d="m256.546875 358.734375h-47.097656c-1.65625 0-3 1.339844-3 3v52.644531c0 1.65625 1.34375 3 3 3h47.097656c1.660156 0 3-1.34375 3-3v-52.644531c0-1.65625-1.339844-3-3-3zm-3 52.644531h-41.097656v-46.644531h41.097656zm0 0" fill="#3a312a"/><path d="m268.109375 414.378906h-70.21875c-19.261719 0-34.878906 15.617188-34.878906 34.878906h139.980469c-.003907-19.261718-15.617188-34.878906-34.882813-34.878906zm0 0" fill="#87796f"/><path d="m268.109375 411.378906h-70.21875c-20.882813 0-37.878906 16.992188-37.878906 37.878906 0 1.660157 1.34375 3 3 3h139.976562c1.660157 0 3-1.339843 3-3 0-20.886718-16.992187-37.878906-37.878906-37.878906zm-101.960937 34.878906c1.519531-16.175781 15.175781-28.878906 31.742187-28.878906h70.21875c16.566406 0 30.21875 12.703125 31.738281 28.878906zm0 0" fill="#3a312a"/><path d="m426.441406 3.5h-386.882812c-20.191406 0-36.558594 16.367188-36.558594 36.558594v285.117187c0 20.1875 16.367188 36.558594 36.558594 36.558594h386.882812c20.1875 0 36.554688-16.371094 36.554688-36.558594v-285.117187c.003906-20.191406-16.363282-36.558594-36.554688-36.558594zm0 0" fill="#87796f"/><path d="m426.441406.5h-93.167968c-1.660157 0-3 1.339844-3 3 0 1.65625 1.339843 3 3 3h93.167968c18.503906 0 33.558594 15.054688 33.558594 33.558594v285.117187c0 18.503907-15.054688 33.558594-33.558594 33.558594h-386.882812c-18.503906 0-33.558594-15.054687-33.558594-33.558594v-285.117187c0-18.503906 15.054688-33.558594 33.558594-33.558594h265.164062c1.660156 0 3-1.34375 3-3 0-1.660156-1.339844-3-3-3h-265.164062c-21.8125 0-39.558594 17.746094-39.558594 39.558594v285.117187c0 21.8125 17.746094 39.558594 39.558594 39.558594h386.882812c21.8125 0 39.554688-17.746094 39.554688-39.558594v-285.117187c.003906-21.8125-17.742188-39.558594-39.554688-39.558594zm0 0" fill="#3a312a"/><path d="m410.101562 30.546875h-354.203124c-13.796876 0-24.976563 11.199219-24.976563 25v254.136719c0 2.820312.457031 5.542968 1.339844 8.082031 3.339843 9.839844 12.660156 16.917969 23.636719 16.917969h354.203124c13.796876 0 24.976563-11.199219 24.976563-25v-254.136719c0-13.800781-11.179687-25-24.976563-25zm0 0" fill="#fce8cb"/><path d="m410.101562 27.546875h-354.203124c-15.425782 0-27.976563 12.558594-27.976563 28v66.957031c0 1.65625 1.339844 3 3 3 1.65625 0 3-1.34375 3-3v-66.957031c0-12.132813 9.859375-22 21.976563-22h354.203124c12.117188 0 21.976563 9.867187 21.976563 22v254.136719c0 12.132812-9.859375 22-21.976563 22h-354.203124c-9.417969 0-17.777344-5.980469-20.804688-14.902344-.78125-2.25-1.171875-4.636719-1.171875-7.097656v-157.429688c0-1.65625-1.34375-3-3-3-1.660156 0-3 1.34375-3 3v157.433594c0 3.128906.503906 6.179688 1.496094 9.042969 3.847656 11.335937 14.488281 18.957031 26.480469 18.957031h354.203124c15.425782 0 27.976563-12.558594 27.976563-28v-254.140625c0-15.441406-12.550781-28-27.976563-28zm0 0" fill="#3a312a"/><path d="m235.398438 364.738281h18.140624v46.640625h-18.140624zm0 0" fill="#695b51"/><path d="m268.101562 417.378906h-18.140624c16.578124 0 30.238281 12.699219 31.738281 28.878906h18.140625c-1.5-16.179687-15.160156-28.878906-31.738282-28.878906zm0 0" fill="#695b51"/><path d="m309.613281 118.210938c-46.765625 28.660156-105.65625 28.660156-152.425781 0-26.546875 43.320312-53.09375 86.644531-79.640625 129.964843 95.640625 58.605469 216.070313 58.605469 311.710937 0-26.550781-43.320312-53.097656-86.644531-79.644531-129.964843zm0 0" fill="#8ac6dd"/><path d="m391.8125 246.609375-79.640625-129.964844c-.414063-.679687-1.082031-1.164062-1.859375-1.351562-.773438-.1875-1.585938-.058594-2.265625.359375-46.042969 28.214844-103.25 28.214844-149.292969 0-.679687-.417969-1.496094-.546875-2.269531-.359375s-1.441406.671875-1.855469 1.351562l-79.644531 129.964844c-.414063.675781-.542969 1.492187-.359375 2.269531.1875.773438.671875 1.441406 1.351562 1.855469 47.398438 29.046875 101.832032 44.398437 157.421876 44.398437 55.589843 0 110.027343-15.351562 157.421874-44.398437.679688-.414063 1.164063-1.082031 1.351563-1.855469.1875-.777344.058594-1.589844-.359375-2.269531zm-158.414062 42.523437c-53.476563 0-105.875-14.5-151.71875-41.960937l76.511718-124.859375c46.660156 27.339844 103.753906 27.339844 150.417969 0l76.511719 124.859375c-45.84375 27.460937-98.242188 41.960937-151.722656 41.960937zm0 0" fill="#3a312a"/><path d="m67.898438 58.210938h75v26h-75zm0 0" fill="#f16c7a"/><path d="m142.898438 55.210938h-75c-1.65625 0-3 1.34375-3 3v26c0 1.65625 1.34375 3 3 3h75c1.660156 0 3-1.34375 3-3v-26c0-1.65625-1.339844-3-3-3zm-3 26h-69v-20h69zm0 0" fill="#3a312a"/><path d="m323.898438 58.210938h75v26h-75zm0 0" fill="#f16c7a"/><path d="m398.898438 55.210938h-75c-1.65625 0-3 1.34375-3 3v26c0 1.65625 1.34375 3 3 3h75c1.660156 0 3-1.34375 3-3v-26c0-1.65625-1.339844-3-3-3zm-3 26h-69v-20h69zm0 0" fill="#3a312a"/><path d="m67.898438 104.210938h43v26h-43zm0 0" fill="#f16c7a"/><path d="m110.898438 101.210938h-43c-1.65625 0-3 1.34375-3 3v26c0 1.65625 1.34375 3 3 3h43c1.660156 0 3-1.34375 3-3v-26c0-1.65625-1.339844-3-3-3zm-3 26h-37v-20h37zm0 0" fill="#3a312a"/><path d="m456.398438 375.210938c0 40.867187-33.128907 74-74 74-40.867188 0-74-33.132813-74-74 0-40.867188 33.132812-74 74-74 40.871093 0 74 33.132812 74 74zm0 0" fill="#d7e057"/><path d="m382.398438 298.210938c-42.457032 0-77 34.542968-77 77 0 42.457031 34.542968 77 77 77 42.460937 0 77-34.542969 77-77 0-42.457032-34.539063-77-77-77zm0 148c-39.148438 0-71-31.851563-71-71 0-39.148438 31.851562-71 71-71 39.152343 0 71 31.851562 71 71 0 39.148437-31.847657 71-71 71zm0 0" fill="#3a312a"/><path d="m382.574219 372.835938c-14.113281 0-25.554688 13.894531-25.554688 25.609374 0 11.714844 11.441407 13.757813 25.554688 13.757813 14.117187 0 25.558593-2.042969 25.558593-13.757813 0-11.714843-11.441406-25.609374-25.558593-25.609374zm0 0" fill="#87796f"/><path d="m382.574219 369.835938c-16.082031 0-28.554688 15.378906-28.554688 28.609374 0 16.757813 20.011719 16.757813 28.554688 16.757813 8.546875 0 28.558593 0 28.558593-16.757813 0-13.230468-12.476562-28.609374-28.558593-28.609374zm0 39.367187c-18.71875 0-22.554688-4.300781-22.554688-10.757813 0-10.179687 10.410157-22.609374 22.554688-22.609374 12.148437 0 22.558593 12.429687 22.558593 22.609374 0 6.457032-3.835937 10.757813-22.558593 10.757813zm0 0" fill="#3a312a"/><path d="m382.574219 338.21875c-5.527344 0-10.007813 5.75-10.007813 12.84375s4.480469 12.84375 10.007813 12.84375c5.53125 0 10.011719-5.75 10.011719-12.84375s-4.480469-12.84375-10.011719-12.84375zm0 0" fill="#87796f"/><path d="m382.574219 335.21875c-7.171875 0-13.007813 7.109375-13.007813 15.84375 0 8.738281 5.835938 15.84375 13.007813 15.84375s13.011719-7.105469 13.011719-15.84375c0-8.734375-5.835938-15.84375-13.011719-15.84375zm0 25.6875c-3.796875 0-7.007813-4.507812-7.007813-9.84375s3.210938-9.84375 7.007813-9.84375c3.800781 0 7.011719 4.507812 7.011719 9.84375s-3.210938 9.84375-7.011719 9.84375zm0 0" fill="#3a312a"/><path d="m362.941406 356.5625c-3.316406-6.273438-9.964844-9.265625-14.851562-6.679688-4.886719 2.582032-6.160156 9.757813-2.851563 16.03125 3.316407 6.269532 9.964844 9.261719 14.851563 6.679688 4.886718-2.582031 6.164062-9.761719 2.851562-16.03125zm0 0" fill="#87796f"/><path d="m365.59375 355.160156c-1.914062-3.625-4.847656-6.460937-8.257812-7.996094-3.667969-1.652343-7.449219-1.628906-10.644532.0625-3.203125 1.691407-5.347656 4.800782-6.054687 8.761719-.652344 3.679688.039062 7.703125 1.953125 11.324219 1.914062 3.621094 4.84375 6.460938 8.257812 7.996094 1.808594.8125 3.644532 1.21875 5.429688 1.21875 1.828125 0 3.59375-.425782 5.214844-1.28125 6.34375-3.351563 8.179687-12.359375 4.101562-20.085938zm-6.90625 14.78125c-1.527344.804688-3.4375.773438-5.382812-.105468-2.195313-.988282-4.117188-2.878907-5.410157-5.328126-1.292969-2.445312-1.773437-5.097656-1.351562-7.472656.375-2.097656 1.421875-3.695312 2.949219-4.503906.734374-.382812 1.554687-.578125 2.421874-.578125.945313 0 1.949219.226563 2.960938.683594 2.195312.992187 4.121094 2.878906 5.414062 5.328125 2.492188 4.714844 1.757813 10.203125-1.601562 11.976562zm0 0" fill="#3a312a"/><path d="m342.34375 375.648438c-5.648438-4.292969-12.941406-4.203126-16.285156.199218s-1.476563 11.449219 4.171875 15.738282c5.648437 4.292968 12.941406 4.203124 16.285156-.195313 3.34375-4.402344 1.472656-11.449219-4.171875-15.742187zm0 0" fill="#87796f"/><path d="m350.699219 382.710938c-.957031-3.617188-3.28125-6.972657-6.542969-9.449219-3.257812-2.480469-7.011719-3.835938-10.855469-3.773438-4.019531.046875-7.4375 1.664063-9.628906 4.542969-2.191406 2.882812-2.828125 6.609375-1.796875 10.496094.957031 3.617187 3.28125 6.96875 6.539062 9.449218 3.210938 2.4375 6.992188 3.773438 10.675782 3.773438h.183594c4.019531-.050781 7.4375-1.664062 9.628906-4.542969 2.1875-2.882812 2.828125-6.609375 1.796875-10.496093zm-6.574219 6.863281c-1.046875 1.375-2.796875 2.148437-4.925781 2.171875-2.441407.078125-4.953125-.875-7.152344-2.550782-2.203125-1.671874-3.753906-3.875-4.371094-6.207031-.546875-2.058593-.273437-3.953125.773438-5.328125s2.792969-2.148437 4.925781-2.171875h.109375c2.378906 0 4.875.90625 7.042969 2.550781 2.199218 1.671876 3.753906 3.878907 4.371094 6.207032.546874 2.058594.273437 3.949218-.773438 5.328125zm0 0" fill="#3a312a"/><path d="m417.21875 349.878906c-4.890625-2.582031-11.535156.40625-14.851562 6.679688-3.3125 6.273437-2.039063 13.449218 2.851562 16.03125 4.886719 2.582031 11.535156-.40625 14.847656-6.679688 3.316406-6.269531 2.039063-13.449218-2.847656-16.03125zm0 0" fill="#87796f"/><path d="m424.671875 355.988281c-.703125-3.960937-2.855469-7.070312-6.050781-8.761719-3.199219-1.691406-6.980469-1.714843-10.648438-.0625-3.414062 1.53125-6.34375 4.371094-8.257812 7.996094-4.082032 7.726563-2.242188 16.734375 4.101562 20.085938 1.621094.855468 3.386719 1.28125 5.214844 1.28125 1.78125 0 3.621094-.40625 5.429688-1.21875 3.414062-1.535156 6.34375-4.375 8.257812-7.996094s2.609375-7.640625 1.953125-11.324219zm-7.257813 8.519531c-1.292968 2.445313-3.214843 4.339844-5.410156 5.328126-1.945312.875-3.855468.910156-5.382812.105468-3.359375-1.773437-4.09375-7.261718-1.597656-11.976562 1.289062-2.449219 3.210937-4.335938 5.414062-5.328125 1.941406-.875 3.851562-.910157 5.378906-.105469 1.53125.808594 2.578125 2.410156 2.949219 4.503906.421875 2.375-.058594 5.03125-1.351563 7.472656zm0 0" fill="#3a312a"/><path d="m438.738281 375.847656c-3.34375-4.402344-10.632812-4.492187-16.28125-.199218-5.648437 4.292968-7.515625 11.339843-4.171875 15.742187 3.34375 4.398437 10.636719 4.488281 16.28125.195313 5.648438-4.289063 7.519532-11.339844 4.171875-15.738282zm0 0" fill="#87796f"/><path d="m441.128906 374.03125c-4.335937-5.707031-13.527344-6.054688-20.484375-.769531-3.261719 2.476562-5.585937 5.832031-6.542969 9.449219-1.03125 3.886718-.390624 7.613281 1.796876 10.492187 2.191406 2.882813 5.609374 4.496094 9.628906 4.546875h.183594c3.683593 0 7.46875-1.335938 10.671874-3.773438 3.261719-2.480468 5.585938-5.835937 6.542969-9.449218 1.03125-3.886719.390625-7.613282-1.796875-10.496094zm-4.003906 8.957031c-.617188 2.332031-2.167969 4.535157-4.371094 6.207031-2.203125 1.671876-4.769531 2.632813-7.152344 2.550782-2.132812-.023438-3.882812-.796875-4.925781-2.171875-1.046875-1.378907-1.320312-3.269531-.777343-5.328125.621093-2.332032 2.171874-4.535156 4.375-6.210938 2.21875-1.683594 4.785156-2.535156 7.058593-2.535156 2.082031 0 3.921875.714844 5.019531 2.160156 1.046876 1.378906 1.320313 3.269532.773438 5.328125zm0 0" fill="#3a312a"/><path d="m382.398438 304.210938c-5.136719 0-10.160157.558593-15 1.601562 22.441406 4.839844 40.960937 20.320312 50 40.878906.421874.140625.820312.320313 1.222656.539063 6.238281 3.28125 8.117187 12.058593 4.300781 19.699219.179687 1.519531.296875 3.082031.378906 4.640624 6.480469-3.4375 14.019531-2.558593 17.820313 2.460938 4.339844 5.71875 2.21875 14.660156-4.742188 19.941406-3.300781 2.519532-7.097656 3.757813-10.660156 3.757813-2 0-3.898438-.398438-5.597656-1.179688-7.621094 24.082031-27.742188 42.660157-52.722656 48.058594 4.839843 1.042969 9.863281 1.601563 15 1.601563 39.140624 0 71-31.859376 71-71 0-39.140626-31.859376-71-71-71zm0 0" fill="#b9c239"/><path d="m410.101562 33.550781h-30c12.117188 0 21.976563 9.859375 21.976563 22v245.21875c10.820313 2.863281 20.722656 8.042969 29.140625 14.941407.542969-1.921876.859375-3.941407.859375-6.019532v-254.140625c0-12.140625-9.859375-22-21.976563-22zm0 0" fill="#decaad"/></svg>