<?xml version="1.0" encoding="utf-8"?>
<!-- Generator: Adobe Illustrator 16.0.0, SVG Export Plug-In . SVG Version: 6.00 Build 0)  -->
<!DOCTYPE svg PUBLIC "-//W3C//DTD SVG 1.1//EN" "http://www.w3.org/Graphics/SVG/1.1/DTD/svg11.dtd">
<svg version="1.1" id="Layer_1" xmlns="http://www.w3.org/2000/svg" xmlns:xlink="http://www.w3.org/1999/xlink" x="0px" y="0px"
	 width="50px" height="50px" viewBox="0 0 50 50" enable-background="new 0 0 50 50" xml:space="preserve">
<g>
	<g>
		<g>
			<path fill="#010101" d="M48.043,15.78H37.975c-1.121-1.637-2.538-3.05-4.171-4.167V1.54c0-0.94-0.765-1.706-1.705-1.706H17.486
				c-0.941,0-1.706,0.766-1.706,1.706v10.081c-1.628,1.118-3.041,2.531-4.159,4.159h-4.1c-0.405,0-0.731,0.327-0.731,0.731
				s0.327,0.731,0.731,0.731h3.206c-1.211,2.25-1.901,4.82-1.901,7.55s0.689,5.301,1.901,7.55H1.541
				c-0.135,0-0.244-0.11-0.244-0.244V17.486c0-0.134,0.109-0.244,0.244-0.244h2.478c0.404,0,0.731-0.328,0.731-0.731
				S4.422,15.78,4.018,15.78H1.541c-0.94,0-1.707,0.765-1.707,1.706v14.612c0,0.942,0.766,1.707,1.707,1.707h10.08
				c1.118,1.629,2.53,3.04,4.159,4.159v10.081c0,0.939,0.765,1.705,1.706,1.705h2.508c0.404,0,0.731-0.327,0.731-0.73
				c0-0.404-0.327-0.731-0.731-0.731h-2.508c-0.135,0-0.244-0.11-0.244-0.243v-9.189c2.249,1.214,4.821,1.903,7.55,1.903
				c2.661,0,5.248-0.662,7.548-1.899v9.186c0,0.133-0.108,0.243-0.242,0.243h-8.602c-0.405,0-0.731,0.327-0.731,0.731
				c0,0.403,0.326,0.73,0.731,0.73h8.602c0.94,0,1.705-0.766,1.705-1.705V37.972c0.587-0.401,1.147-0.843,1.682-1.323
				c0.944-0.854,1.778-1.811,2.485-2.844h10.072c0.941,0,1.707-0.765,1.707-1.707V17.486C49.75,16.544,48.984,15.78,48.043,15.78z
				 M17.242,1.54c0-0.134,0.109-0.243,0.244-0.243h14.613c0.134,0,0.242,0.109,0.242,0.243v9.184
				c-2.256-1.212-4.831-1.897-7.548-1.897c-2.729,0-5.301,0.69-7.55,1.901V1.54z M48.288,32.098c0,0.134-0.11,0.244-0.245,0.244
				h-9.182c0.96-1.785,1.575-3.752,1.8-5.799c0.044-0.4-0.247-0.763-0.647-0.806c-0.402-0.043-0.764,0.246-0.805,0.648
				c-0.806,7.36-7.002,12.911-14.417,12.911c-7.998,0-14.504-6.507-14.504-14.504c0-7.997,6.506-14.504,14.504-14.504
				c7.336,0,13.527,5.486,14.399,12.76c0.047,0.401,0.412,0.687,0.813,0.639c0.4-0.047,0.688-0.412,0.64-0.812
				c-0.243-2.026-0.861-3.926-1.779-5.633h9.179c0.135,0,0.245,0.109,0.245,0.244V32.098z"/>
			<path fill="#010101" d="M29.897,27.551c-0.659-0.488-1.092-1.183-1.216-1.953c-0.155-0.969-0.653-1.856-1.4-2.5
				c-1.552-1.335-3.89-1.329-5.435,0.018c-0.794,0.691-1.294,1.646-1.409,2.688c-0.083,0.758-0.451,1.46-1.033,1.976
				c-0.989,0.875-1.497,2.135-1.392,3.454c0.161,2.034,1.817,3.674,3.854,3.814c0.1,0.007,0.199,0.01,0.298,0.01
				c0.518,0,1.023-0.094,1.505-0.282c0.725-0.281,1.523-0.281,2.249,0.001c0.57,0.223,1.177,0.313,1.796,0.271
				c2.018-0.138,3.674-1.758,3.854-3.769C31.698,29.817,31.075,28.423,29.897,27.551L29.897,27.551z M30.112,31.149
				c-0.119,1.302-1.19,2.351-2.497,2.439c-0.406,0.029-0.799-0.03-1.17-0.175c-1.065-0.415-2.241-0.415-3.307,0
				c-0.372,0.145-0.766,0.205-1.172,0.175c-1.319-0.091-2.392-1.152-2.496-2.47c-0.069-0.858,0.26-1.676,0.902-2.243
				c0.856-0.758,1.395-1.791,1.518-2.913c0.074-0.675,0.4-1.294,0.916-1.745c0.503-0.438,1.135-0.657,1.768-0.657
				c0.627,0,1.253,0.215,1.754,0.646c0.492,0.425,0.807,0.985,0.911,1.621c0.182,1.151,0.819,2.18,1.788,2.899
				C29.791,29.292,30.195,30.198,30.112,31.149L30.112,31.149z"/>
			<path fill="#010101" d="M20.971,20.886c1.753,0,3.181-1.426,3.181-3.181c0-1.753-1.428-3.18-3.181-3.18
				c-1.754,0-3.181,1.427-3.181,3.18C17.79,19.46,19.216,20.886,20.971,20.886z M20.971,15.988c0.947,0,1.718,0.771,1.718,1.718
				s-0.771,1.718-1.718,1.718s-1.718-0.771-1.718-1.718S20.023,15.988,20.971,15.988z"/>
			<path fill="#010101" d="M28.613,20.886c1.753,0,3.18-1.426,3.18-3.181c0-1.753-1.427-3.18-3.18-3.18
				c-1.755,0-3.181,1.427-3.181,3.18C25.433,19.46,26.858,20.886,28.613,20.886z M28.613,15.988c0.947,0,1.717,0.771,1.717,1.718
				s-0.77,1.718-1.717,1.718c-0.948,0-1.719-0.771-1.719-1.718S27.665,15.988,28.613,15.988z"/>
			<path fill="#010101" d="M19.083,23.599c0-1.753-1.427-3.18-3.18-3.18c-1.753,0-3.18,1.427-3.18,3.18
				c0,1.754,1.427,3.18,3.18,3.18C17.657,26.779,19.083,25.353,19.083,23.599z M15.903,25.317c-0.947,0-1.718-0.771-1.718-1.718
				s0.771-1.718,1.718-1.718c0.948,0,1.718,0.771,1.718,1.718S16.851,25.317,15.903,25.317z"/>
			<path fill="#010101" d="M33.68,20.419c-1.753,0-3.179,1.427-3.179,3.18c0,1.754,1.426,3.18,3.179,3.18s3.182-1.426,3.182-3.18
				S35.433,20.419,33.68,20.419z M33.68,25.317c-0.946,0-1.717-0.771-1.717-1.718s0.771-1.718,1.717-1.718
				c0.947,0,1.719,0.771,1.719,1.718S34.627,25.317,33.68,25.317z"/>
		</g>
	</g>
</g>
</svg>
